<?xml version="1.0" standalone="no"?>
<!DOCTYPE svg PUBLIC "-//W3C//DTD SVG 20010904//EN"
 "https://www.w3.org/TR/2001/REC-SVG-20010904/DTD/svg10.dtd">
<svg version="1.0" xmlns="http://www.w3.org/2000/svg"
 width="802.000000pt" height="802.000000pt" viewBox="0 0 802.000000 802.000000"
 preserveAspectRatio="xMidYMid meet">
<metadata>
Created by potrace 1.11, written by Peter Selinger 2001-2013
</metadata>
<g transform="translate(0.000000,802.000000) scale(0.100000,-0.100000)"
fill="#000000" stroke="none">
<path d="M5378 5805 c-2 -1 -32 -5 -68 -9 -36 -3 -85 -12 -110 -20 -37 -11
-273 -13 -1330 -14 -1333 0 -1359 -1 -1453 -41 -74 -32 -115 -98 -95 -151 21
-56 78 -94 218 -144 144 -52 233 -120 224 -173 -1 -7 -2 -20 -3 -28 -2 -27
-73 -95 -135 -130 -101 -56 -290 -126 -406 -150 -8 -2 -44 -10 -80 -18 -71
-17 -265 -51 -345 -62 -27 -4 -61 -8 -75 -10 -14 -2 -54 -6 -90 -10 -36 -4
-72 -8 -80 -10 -8 -2 -55 -7 -105 -10 -49 -4 -106 -8 -125 -10 -35 -3 -214
-14 -345 -20 -38 -2 -121 -4 -182 -5 -62 -1 -114 -5 -114 -9 -1 -3 -2 -628 -3
-1389 l-1 -1383 185 6 c102 3 212 8 245 10 183 11 254 16 285 20 19 2 67 7
105 10 39 4 77 8 85 10 8 1 46 6 85 10 38 4 72 8 75 10 3 1 32 6 65 10 82 9
279 48 402 79 212 54 413 142 525 231 149 117 180 270 77 371 l-39 38 0 -106
c0 -97 -2 -108 -26 -144 -65 -96 -188 -170 -411 -248 -56 -19 -104 -32 -107
-28 -2 4 -3 24 -2 45 l1 37 -177 0 -178 0 0 203 0 203 78 13 c209 37 497 123
627 189 127 64 238 160 275 240 40 85 16 191 -56 245 l-24 18 0 -103 c0 -99
-1 -104 -31 -149 -60 -87 -200 -170 -408 -239 -68 -23 -131 -43 -140 -45 -9
-2 -55 -13 -103 -24 -47 -11 -101 -23 -120 -26 -18 -3 -48 -8 -66 -12 l-33 -5
3 218 c4 212 5 221 32 290 l28 71 81 18 c45 9 89 18 97 20 8 2 44 10 79 20
l64 16 30 -37 c89 -107 287 -113 380 -11 48 52 70 113 71 192 1 69 2 72 44
115 92 96 118 209 66 286 -27 39 -59 74 -69 74 -3 0 -5 -47 -5 -103 0 -99 -1
-106 -29 -145 -16 -22 -34 -43 -39 -46 -5 -3 -24 10 -41 29 -72 80 -158 111
-284 102 -225 -14 -407 -161 -506 -408 -7 -17 -10 41 -10 183 l-1 208 -335 0
-335 -1 -1 -37 c-1 -36 0 -192 1 -223 0 -13 20 -15 141 -14 108 0 142 -2 146
-12 3 -8 6 -306 7 -663 l1 -650 -147 0 -148 0 -1 -27 c0 -16 0 -70 0 -121 l0
-92 -32 -1 c-18 0 -50 -2 -72 -4 -22 -2 -102 -6 -177 -9 l-137 -5 2 286 2 286
50 3 c28 1 111 5 185 8 74 3 162 8 195 11 33 2 81 5 108 6 47 2 49 4 49 49 0
57 -1 60 -29 55 -52 -9 -356 -26 -518 -29 l-40 -1 -1 283 c-1 155 1 284 5 286
3 2 83 7 176 10 154 6 308 15 360 21 11 1 27 3 35 4 13 1 18 41 11 93 -1 4
-18 5 -39 3 -168 -17 -524 -31 -540 -21 -5 3 -9 125 -10 286 l0 280 36 1 c95
1 395 16 482 24 19 2 78 6 130 10 52 3 102 8 110 10 8 2 42 6 75 10 257 27
573 91 765 155 245 82 418 197 478 317 28 57 29 145 1 185 -23 35 -64 78 -74
78 -3 0 -5 -43 -5 -95 0 -100 -9 -130 -53 -181 -62 -72 -211 -152 -396 -213
-68 -23 -133 -43 -145 -45 -11 -3 -61 -14 -111 -25 -49 -11 -106 -23 -125 -26
-19 -3 -42 -8 -50 -10 -8 -2 -40 -7 -70 -10 -30 -3 -62 -8 -70 -10 -8 -2 -37
-6 -65 -10 -27 -3 -66 -8 -85 -10 -19 -3 -62 -7 -95 -10 -33 -3 -73 -7 -90
-10 -27 -4 -81 -8 -265 -20 -30 -2 -128 -6 -216 -10 l-162 -7 0 281 0 281 76
1 c43 1 102 2 132 4 182 9 318 17 340 20 14 2 70 7 125 10 55 4 107 8 115 10
8 2 44 6 80 10 36 3 76 8 90 10 14 3 45 7 70 10 25 3 56 7 70 10 24 4 56 10
125 21 99 15 327 72 430 106 283 94 435 213 438 342 1 65 -23 115 -79 165 -44
39 -159 101 -187 101 -9 0 -18 4 -21 9 -3 4 -20 11 -38 15 -37 7 -118 53 -118
66 0 14 51 38 106 51 35 8 389 11 1229 11 649 0 1183 -1 1187 -1 3 -1 -23 -29
-59 -63 -74 -72 -139 -166 -177 -254 -27 -66 -66 -202 -66 -232 0 -19 -23 -19
-782 -20 -431 0 -799 -1 -819 -1 -36 -1 -36 -1 -34 -43 2 -24 3 -45 4 -48 0
-3 109 -5 242 -5 132 0 246 -3 252 -7 8 -5 8 -8 -2 -8 -27 0 -141 -82 -190
-136 -27 -30 -62 -80 -78 -112 l-28 -57 0 -1075 0 -1075 78 0 77 -1 0 901 0
900 563 -1 c309 0 567 1 573 3 6 2 10 22 10 45 -1 36 -5 42 -26 47 -14 4 -184
6 -377 5 -194 0 -353 0 -353 1 0 1 26 18 58 38 172 106 275 293 232 422 -7 21
-27 54 -45 74 l-33 36 332 0 331 0 0 -68 c0 -38 -2 -72 -5 -76 -3 -3 -84 -6
-180 -6 l-175 0 0 -118 c0 -65 3 -121 9 -124 5 -3 86 -6 180 -5 l171 0 0 -652
0 -651 -135 -1 c-74 -1 -138 -2 -141 -3 -3 0 -5 -46 -4 -101 1 -65 -2 -100 -9
-101 -6 -1 -87 -2 -181 -3 l-170 -1 0 -50 0 -50 1688 0 c1343 0 1687 3 1688
12 1 7 1 24 1 38 0 14 0 31 -1 38 -1 10 -87 12 -406 12 l-405 0 0 105 0 105
-207 0 -208 0 0 180 0 180 607 0 c333 0 610 3 614 7 9 10 11 59 3 78 -6 13
-82 15 -609 15 -331 0 -605 2 -610 5 -5 3 -8 131 -7 285 l2 280 613 0 c401 0
612 3 613 10 4 53 4 67 -2 77 -5 8 -175 12 -616 12 l-608 1 0 85 0 85 257 1
c142 0 261 3 264 6 8 8 11 204 3 226 -5 15 -30 17 -265 17 l-259 0 0 75 0 75
613 0 c410 0 612 3 613 10 4 54 4 67 -2 76 -4 8 -194 11 -614 11 l-607 1 6 66
c8 94 13 116 42 207 50 160 144 237 288 237 41 0 88 -5 105 -13 17 -7 31 -13
31 -14 0 0 -7 -25 -14 -53 -27 -100 -2 -217 55 -270 56 -51 181 -75 249 -47
45 19 96 68 123 119 31 57 30 181 -2 246 -12 25 -31 56 -42 68 -24 25 -45 23
199 23 127 0 182 4 183 12 0 6 2 24 3 39 1 15 -1 33 -5 38 -4 7 -104 12 -290
13 -226 2 -299 6 -357 20 -121 28 -285 24 -398 -8 -68 -20 -614 -19 -688 0
-70 19 -237 38 -248 29z m681 -145 c8 0 -6 -16 -30 -35 -25 -19 -55 -49 -68
-66 l-23 -31 -15 30 c-8 17 -29 48 -48 69 l-32 38 101 -2 c55 -1 107 -2 115
-3z m-557 -88 l36 -22 -23 -65 c-27 -77 -25 -149 6 -212 34 -71 93 -106 199
-120 54 -7 54 -6 46 -36 l-5 -23 -377 -2 -376 -1 7 67 c20 190 87 335 182 393
61 38 104 48 189 45 63 -2 89 -7 116 -24z m244 -585 c13 -12 12 -137 0 -138
-6 -1 -174 -2 -373 -3 -234 -1 -364 3 -366 9 -3 9 -1 122 2 135 2 8 729 5 737
-3z m5 -396 c1 -3 2 -295 3 -648 1 -421 -2 -644 -9 -646 -5 -2 -65 -3 -132 -2
l-123 1 0 -103 c0 -57 -3 -103 -7 -104 -5 0 -54 -2 -110 -3 l-103 -2 -1 60 c0
34 -1 81 -2 106 l-2 45 -125 1 c-69 1 -127 2 -130 3 -4 1 -5 332 -1 351 1 3
142 5 313 5 l313 0 -1 38 c-1 20 -2 43 -3 50 -1 9 -70 12 -313 12 l-313 0 0
282 c0 180 4 284 10 286 5 2 146 3 313 2 166 0 303 3 303 7 5 31 4 75 -2 83
-5 6 -119 10 -313 9 -168 -1 -306 1 -307 5 -3 20 -5 157 -2 162 3 8 743 8 744
0z m-3515 -910 c0 -18 -5 -39 -12 -46 -11 -11 -99 -36 -172 -50 -12 -2 -27 -7
-32 -10 -24 -15 -7 18 29 54 41 42 88 70 136 82 43 10 50 6 51 -30z"/>
<path d="M3558 5526 c-84 -56 -77 -170 13 -214 107 -53 220 61 166 168 -18 35
-71 68 -112 68 -19 0 -49 -10 -67 -22z"/>
<path d="M3661 3750 c-4 -3 -7 -25 -7 -50 l1 -45 425 0 425 0 1 48 c0 26 -2
48 -5 48 -20 4 -834 3 -840 -1z"/>
</g>
</svg>
