<svg width="1044" height="260pt" viewBox="0 0 783.09 260" xmlns="http://www.w3.org/2000/svg"><g class="graph"><path fill="#fff" stroke="transparent" d="M0 260V0h783.092v260H0z"/><g class="node"><path fill="#fff" stroke="#333" d="M471.57 4h-54v36h54V4z"/><text text-anchor="middle" x="440.57" y="-229.8" font-family="sans-serif" font-size="14" transform="translate(4 256)">riff</text></g><g class="node"><path fill="#ffd" stroke="#333" d="M483.76 76h-78.38v36h78.38V76z"/><text text-anchor="middle" x="440.57" y="-157.8" font-family="sans-serif" font-size="14" transform="translate(4 256)">riff-builder</text></g><path fill="none" stroke="#000" d="M444.57 40.169v35.418"/><g class="node"><path fill="#fdd" stroke="#333" d="M202.314 148h-93.488v36h93.488v-36z"/><text text-anchor="middle" x="151.57" y="-85.8" font-family="sans-serif" font-size="14" transform="translate(4 256)">riff-buildpack</text></g><path fill="none" stroke="#000" d="M405.154 102.087c-46.537 9.79-126.14 27.293-193.584 45.913a505.108 505.108 0 00-9.032 2.59"/><g class="node"><path fill="#fdd" stroke="#333" d="M350.76 148H220.38v36h130.38v-36z"/><text text-anchor="middle" x="281.57" y="-85.8" font-family="sans-serif" font-size="14" transform="translate(4 256)">OpenJDK buildpack</text></g><path fill="none" stroke="#000" d="M405.266 111.798c-24.278 10.994-55.343 25.06-79.74 36.109"/><g class="node"><path fill="#fdd" stroke="#333" d="M519.622 148H369.518v36h150.104v-36z"/><text text-anchor="middle" x="440.57" y="-85.8" font-family="sans-serif" font-size="14" transform="translate(4 256)">Build System buildpack</text></g><path fill="none" stroke="#000" d="M444.57 112.169v35.418"/><g class="node"><path fill="#fdd" stroke="#333" d="M655.829 148H537.31v36h118.518v-36z"/><text text-anchor="middle" x="592.57" y="-85.8" font-family="sans-serif" font-size="14" transform="translate(4 256)">NodeJS buildpack</text></g><path fill="none" stroke="#000" d="M482.926 112.169l75.564 35.793"/><g class="node"><path fill="#fdd" stroke="#333" d="M779.114 148H674.026v36h105.088v-36z"/><text text-anchor="middle" x="722.57" y="-85.8" font-family="sans-serif" font-size="14" transform="translate(4 256)">NPM buildpack</text></g><path fill="none" stroke="#000" d="M484.04 103.162c44.13 10.366 117.656 28.003 180.53 44.838 3.031.812 6.141 1.661 9.277 2.53"/><g class="node"><path fill="#dff" stroke="#333" d="M91.21 220H3.93v36h87.28v-36z"/><text text-anchor="middle" x="43.57" y="-13.8" font-family="sans-serif" font-size="14" transform="translate(4 256)">Java invoker</text></g><path fill="none" stroke="#000" d="M128.317 184.169l-53.503 35.668"/><g class="node"><path fill="#dff" stroke="#333" d="M201.658 220h-92.176v36h92.176v-36z"/><text text-anchor="middle" x="151.57" y="-13.8" font-family="sans-serif" font-size="14" transform="translate(4 256)">Node invoker</text></g><path fill="none" stroke="#000" d="M155.57 184.169v35.418"/><g class="node"><path fill="#dff" stroke="#333" d="M340.669 220H220.47v36h120.198v-36z"/><text text-anchor="middle" x="276.57" y="-13.8" font-family="sans-serif" font-size="14" transform="translate(4 256)">Command invoker</text></g><path fill="none" stroke="#000" d="M187.113 184.169l61.924 35.668"/></g></svg>