<svg width="792" height="361pt" viewBox="0 0 594 360.8" xmlns="http://www.w3.org/2000/svg" xmlns:xlink="http://www.w3.org/1999/xlink"><g class="graph"><path fill="#fff" stroke="transparent" d="M0 360.8V0h594v360.8H0z"/><path fill="none" stroke="#000" d="M12 348.8V68h570v280.8H12z"/><g class="cluster"><path fill="none" stroke="#000" d="M20 340.8V120h166v220.8H20z"/><text text-anchor="middle" x="99" y="-220.2" font-family="sans-serif" font-size="14" transform="translate(4 356.8)">Java group</text></g><g class="cluster"><path fill="none" stroke="#000" d="M194 340.8V120h172v220.8H194z"/><text text-anchor="middle" x="276" y="-220.2" font-family="sans-serif" font-size="14" transform="translate(4 356.8)">Node group</text></g><g class="cluster"><path fill="none" stroke="#000" d="M374 196.8V120h200v76.8H374z"/><text text-anchor="middle" x="470" y="-220.2" font-family="sans-serif" font-size="14" transform="translate(4 356.8)">Command group</text></g><a xlink:href="https://github.com/projectriff/riff" xlink:title="riff" transform="translate(4 356.8)"><path fill="#fff" stroke="#333" d="M303-352.8h-54v36h54v-36z"/><text text-anchor="middle" x="276" y="-330.6" font-family="sans-serif" font-size="14">riff</text></a><a xlink:href="https://github.com/projectriff/builder" xlink:title="riff Builder" transform="translate(4 356.8)"><path fill="#ffd" stroke="#333" d="M315.866-280.8h-79.732v36h79.732v-36z"/><text text-anchor="middle" x="276" y="-258.6" font-family="sans-serif" font-size="14">riff Builder</text></a><path fill="none" stroke="#000" d="M280 40.169v35.418"/><a xlink:href="https://github.com/cloudfoundry/openjdk-buildpack" xlink:title="OpenJDK buildpack" transform="translate(4 356.8)"><path fill="#fdd" stroke="#333" d="M169.19-204H38.81v36h130.38v-36z"/><text text-anchor="middle" x="104" y="-181.8" font-family="sans-serif" font-size="14">OpenJDK buildpack</text></a><a xlink:href="https://github.com/cloudfoundry/nodejs-cnb" xlink:title="NodeJS buildpack" transform="translate(4 356.8)"><path fill="#fdd" stroke="#333" d="M335.26-204H216.74v36h118.52v-36z"/><text text-anchor="middle" x="276" y="-181.8" font-family="sans-serif" font-size="14">NodeJS buildpack</text></a><a xlink:href="https://github.com/projectriff/command-function-buildpack" xlink:title="Command function buildpack" transform="translate(4 356.8)"><path fill="#dff" stroke="#333" d="M561.7-204H378.3v36h183.4v-36z"/><text text-anchor="middle" x="470" y="-181.8" font-family="sans-serif" font-size="14">Command function buildpack</text></a><a xlink:href="https://github.com/cloudfoundry/build-system-buildpack" xlink:title="Build System buildpack" transform="translate(4 356.8)"><path fill="#fdd" stroke="#333" d="M174.052-132H23.948v36h150.104v-36z"/><text text-anchor="middle" x="99" y="-109.8" font-family="sans-serif" font-size="14">Build System buildpack</text></a><path fill="none" stroke="#000" d="M106.738 188.969l-2.46 35.418"/><a xlink:href="https://github.com/projectriff/java-function-buildpack" xlink:title="Java function buildpack" transform="translate(4 356.8)"><path fill="#dff" stroke="#333" d="M173.74-60H24.26v36h149.48v-36z"/><text text-anchor="middle" x="99" y="-37.8" font-family="sans-serif" font-size="14">Java function buildpack</text></a><path fill="none" stroke="#000" d="M103 260.969v35.418"/><a xlink:href="https://github.com/cloudfoundry/npm-cnb" xlink:title="NPM buildpack" transform="translate(4 356.8)"><path fill="#fdd" stroke="#333" d="M328.544-132H223.456v36h105.088v-36z"/><text text-anchor="middle" x="276" y="-109.8" font-family="sans-serif" font-size="14">NPM buildpack</text></a><path fill="none" stroke="#000" d="M280 188.969v35.418"/><a xlink:href="https://github.com/projectriff/node-function-buildpack" xlink:title="Node function buildpack" transform="translate(4 356.8)"><path fill="#dff" stroke="#333" d="M353.688-60H198.312v36h155.376v-36z"/><text text-anchor="middle" x="276" y="-37.8" font-family="sans-serif" font-size="14">Node function buildpack</text></a><path fill="none" stroke="#000" d="M280 260.969v35.418"/></g></svg>